# xmcd
#
# Track frame offsets:
#	150
#	15206
#	18590
#	31912
#	48306
#	60321
#	74991
#	92974
#	107504
#	125290
#	142307
#	157390
#	171569
#	192368
#	207294
#	224593
#	237370
#	251016
#	265994
#
# Disc length: 3623 seconds
#
# Revision: 1
# Processed by: cddbd v1.5.1PL0 Copyright (c) Steve Scherf et al.
# Submitted via: audiograbber 1.83.01
#
DISCID=260e2513
DTITLE=Various Artist - Barretão Duplo 2004 02
DYEAR=2005
DGENRE=Country
TTITLE0=01- Frutal - Cowboy Viado
TTITLE1=02- Johnny Barreto - Abertura
TTITLE2=03- Roberto Meirin - A Coisa das Muie
TTITLE3=04- Jad and Jefferson - A Turma Do Zoio Roxo
TTITLE4=05- Adalberto and Adriano - A Cobra Vai Fumar
TTITLE5=06- Jean and Jeferson - A Maior Festa
TTITLE6=07- Karlo and Nando - Paixao Violenta
TTITLE7=08- Delley and Dorivan - Aconteceu Comigo
TTITLE8=09- Bruno and Marlow - Nois So Pensa Naquilo
TTITLE9=10- Ze Henrique and Gabriel - O Brasil Ta Cheio
TTITLE10=11- Juliano Cesar - Rodo Sem Borracha
TTITLE11=12- Breno and Duran - E So Alegria
TTITLE12=13- Alex Conrado - Va Viver a Sua Vida
TTITLE13=14- Chico Rey and Parana - Entre Amigos e Whisky
TTITLE14=15- Ney and Nando - Karate (Pt Teodoro and Sampaio)
TTITLE15=16- Guilherme and Gustavo - Bica D'Agua
TTITLE16=17- Sula Mazurega - Comendo Poeira
TTITLE17=18- Guto and Nando - No Ponteiro da Viola
TTITLE18=19- Vinheta - No Barretao
EXTD=
EXTT0=
EXTT1=
EXTT2=
EXTT3=
EXTT4=
EXTT5=
EXTT6=
EXTT7=
EXTT8=
EXTT9=
EXTT10=
EXTT11=
EXTT12=
EXTT13=
EXTT14=
EXTT15=
EXTT16=
EXTT17=
EXTT18=
PLAYORDER=
